<?xml version="1.0" encoding="UTF-8" standalone="no"?>
<!DOCTYPE svg PUBLIC "-//W3C//DTD SVG 1.1//EN"
 "http://www.w3.org/Graphics/SVG/1.1/DTD/svg11.dtd">
<!-- Generated by graphviz version 12.2.1 (20241206.2353)
 -->
<!-- Title: corrected_receiver_chain Pages: 1 -->
<svg width="1436pt" height="313pt"
 viewBox="14.40 14.40 1421.76 298.30" xmlns="http://www.w3.org/2000/svg" xmlns:xlink="http://www.w3.org/1999/xlink">
<g id="graph0" class="graph" transform="scale(1 1) rotate(0) translate(18.4 294.3)">
<title>corrected_receiver_chain</title>
<polygon fill="white" stroke="none" points="-4,4 -4,-279.9 1403.36,-279.9 1403.36,4 -4,4"/>
<!-- rx -->
<g id="node1" class="node">
<title>rx</title>
<path fill="none" stroke="#333333" stroke-width="1.2" d="M85.17,-275.9C85.17,-275.9 12,-275.9 12,-275.9 6,-275.9 0,-269.9 0,-263.9 0,-263.9 0,-233 0,-233 0,-227 6,-221 12,-221 12,-221 85.17,-221 85.17,-221 91.17,-221 97.17,-227 97.17,-233 97.17,-233 97.17,-263.9 97.17,-263.9 97.17,-269.9 91.17,-275.9 85.17,-275.9"/>
<text text-anchor="middle" x="48.59" y="-255.4" font-family="PingFang SC" font-size="14.00">接收复信号</text>
<text text-anchor="middle" x="48.59" y="-235.15" font-family="PingFang SC" font-size="14.00">含导航数据</text>
</g>
<!-- acq -->
<g id="node2" class="node">
<title>acq</title>
<path fill="none" stroke="#333333" stroke-width="1.2" d="M277.59,-275.9C277.59,-275.9 160.17,-275.9 160.17,-275.9 154.17,-275.9 148.17,-269.9 148.17,-263.9 148.17,-263.9 148.17,-233 148.17,-233 148.17,-227 154.17,-221 160.17,-221 160.17,-221 277.59,-221 277.59,-221 283.59,-221 289.59,-227 289.59,-233 289.59,-233 289.59,-263.9 289.59,-263.9 289.59,-269.9 283.59,-275.9 277.59,-275.9"/>
<text text-anchor="middle" x="218.88" y="-255.4" font-family="PingFang SC" font-size="14.00">捕获</text>
<text text-anchor="middle" x="218.88" y="-235.15" font-family="PingFang SC" font-size="14.00">粗码时延 / 粗频偏</text>
</g>
<!-- rx&#45;&gt;acq -->
<g id="edge1" class="edge">
<title>rx&#45;&gt;acq</title>
<path fill="none" stroke="#444444" stroke-width="1.1" d="M97.36,-248.45C110.07,-248.45 124.16,-248.45 138.08,-248.45"/>
<polygon fill="#444444" stroke="#444444" stroke-width="1.1" points="138.01,-251.25 146.01,-248.45 138.01,-245.65 138.01,-251.25"/>
</g>
<!-- wipeoff -->
<g id="node3" class="node">
<title>wipeoff</title>
<path fill="none" stroke="#333333" stroke-width="1.2" d="M440.01,-266.45C440.01,-266.45 352.59,-266.45 352.59,-266.45 346.59,-266.45 340.59,-260.45 340.59,-254.45 340.59,-254.45 340.59,-242.45 340.59,-242.45 340.59,-236.45 346.59,-230.45 352.59,-230.45 352.59,-230.45 440.01,-230.45 440.01,-230.45 446.01,-230.45 452.01,-236.45 452.01,-242.45 452.01,-242.45 452.01,-254.45 452.01,-254.45 452.01,-260.45 446.01,-266.45 440.01,-266.45"/>
<text text-anchor="middle" x="396.3" y="-245.27" font-family="PingFang SC" font-size="14.00">本地载波去旋</text>
</g>
<!-- acq&#45;&gt;wipeoff -->
<g id="edge2" class="edge">
<title>acq&#45;&gt;wipeoff</title>
<path fill="none" stroke="#444444" stroke-width="1.1" d="M289.97,-248.45C303.41,-248.45 317.42,-248.45 330.68,-248.45"/>
<polygon fill="#444444" stroke="#444444" stroke-width="1.1" points="330.51,-251.25 338.51,-248.45 330.51,-245.65 330.51,-251.25"/>
</g>
<!-- corr -->
<g id="node4" class="node">
<title>corr</title>
<path fill="none" stroke="#333333" stroke-width="1.2" d="M591.18,-218.9C591.18,-218.9 515.01,-218.9 515.01,-218.9 509.01,-218.9 503.01,-212.9 503.01,-206.9 503.01,-206.9 503.01,-176 503.01,-176 503.01,-170 509.01,-164 515.01,-164 515.01,-164 591.18,-164 591.18,-164 597.18,-164 603.18,-170 603.18,-176 603.18,-176 603.18,-206.9 603.18,-206.9 603.18,-212.9 597.18,-218.9 591.18,-218.9"/>
<text text-anchor="middle" x="553.1" y="-198.4" font-family="PingFang SC" font-size="14.00">相关器</text>
<text text-anchor="middle" x="553.1" y="-178.15" font-family="PingFang SC" font-size="14.00">早 / 准 / 晚</text>
</g>
<!-- wipeoff&#45;&gt;corr -->
<g id="edge3" class="edge">
<title>wipeoff&#45;&gt;corr</title>
<path fill="none" stroke="#444444" stroke-width="1.1" d="M447.13,-230.1C461.98,-224.63 478.39,-218.59 493.73,-212.94"/>
<polygon fill="#444444" stroke="#444444" stroke-width="1.1" points="494.52,-215.63 501.06,-210.24 492.59,-210.38 494.52,-215.63"/>
</g>
<!-- dll -->
<g id="node5" class="node">
<title>dll</title>
<path fill="none" stroke="#333333" stroke-width="1.2" d="M820.48,-54.9C820.48,-54.9 745.06,-54.9 745.06,-54.9 739.06,-54.9 733.06,-48.9 733.06,-42.9 733.06,-42.9 733.06,-12 733.06,-12 733.06,-6 739.06,0 745.06,0 745.06,0 820.48,0 820.48,0 826.48,0 832.48,-6 832.48,-12 832.48,-12 832.48,-42.9 832.48,-42.9 832.48,-48.9 826.48,-54.9 820.48,-54.9"/>
<text text-anchor="middle" x="782.77" y="-34.4" font-family="PingFang SC" font-size="14.00">码环</text>
<text text-anchor="middle" x="782.77" y="-14.15" font-family="PingFang SC" font-size="14.00">非相干 DLL</text>
</g>
<!-- corr&#45;&gt;dll -->
<g id="edge4" class="edge">
<title>corr&#45;&gt;dll</title>
<path fill="none" stroke="#444444" stroke-width="1.1" d="M588.58,-163.78C632.05,-128.91 701.18,-73.45 701.18,-73.45 701.18,-73.45 711.58,-67.52 724.9,-59.91"/>
<polygon fill="#444444" stroke="#444444" stroke-width="1.1" points="726.02,-62.49 731.58,-56.09 723.25,-57.63 726.02,-62.49"/>
</g>
<!-- car -->
<g id="node6" class="node">
<title>car</title>
<path fill="none" stroke="#333333" stroke-width="1.2" d="M852.35,-145.9C852.35,-145.9 713.18,-145.9 713.18,-145.9 707.18,-145.9 701.18,-139.9 701.18,-133.9 701.18,-133.9 701.18,-103 701.18,-103 701.18,-97 707.18,-91 713.18,-91 713.18,-91 852.35,-91 852.35,-91 858.35,-91 864.35,-97 864.35,-103 864.35,-103 864.35,-133.9 864.35,-133.9 864.35,-139.9 858.35,-145.9 852.35,-145.9"/>
<text text-anchor="middle" x="782.77" y="-125.4" font-family="PingFang SC" font-size="14.00">载波环</text>
<text text-anchor="middle" x="782.77" y="-105.15" font-family="PingFang SC" font-size="14.00">FLL 辅助 Costas PLL</text>
</g>
<!-- corr&#45;&gt;car -->
<g id="edge5" class="edge">
<title>corr&#45;&gt;car</title>
<path fill="none" stroke="#444444" stroke-width="1.1" d="M603.5,-175.61C629.33,-167.33 661.75,-156.93 691.85,-147.28"/>
<polygon fill="#444444" stroke="#444444" stroke-width="1.1" points="692.33,-150.07 699.1,-144.96 690.62,-144.73 692.33,-150.07"/>
</g>
<!-- nco -->
<g id="node7" class="node">
<title>nco</title>
<path fill="none" stroke="#333333" stroke-width="1.2" d="M1103.77,-223.9C1103.77,-223.9 986.35,-223.9 986.35,-223.9 980.35,-223.9 974.35,-217.9 974.35,-211.9 974.35,-211.9 974.35,-181 974.35,-181 974.35,-175 980.35,-169 986.35,-169 986.35,-169 1103.77,-169 1103.77,-169 1109.77,-169 1115.77,-175 1115.77,-181 1115.77,-181 1115.77,-211.9 1115.77,-211.9 1115.77,-217.9 1109.77,-223.9 1103.77,-223.9"/>
<text text-anchor="middle" x="1045.06" y="-203.4" font-family="PingFang SC" font-size="14.00">数控振荡器</text>
<text text-anchor="middle" x="1045.06" y="-183.15" font-family="PingFang SC" font-size="14.00">本地码 / 本地载波</text>
</g>
<!-- dll&#45;&gt;nco -->
<g id="edge6" class="edge">
<title>dll&#45;&gt;nco</title>
<path fill="none" stroke="#444444" stroke-width="1.1" d="M832.5,-55.27C849.47,-64.96 864.35,-73.45 864.35,-73.45 864.35,-73.45 949.35,-124.2 949.35,-124.2 949.35,-124.2 975.17,-143.9 999.85,-162.72"/>
<polygon fill="#444444" stroke="#444444" stroke-width="1.1" points="998.06,-164.88 1006.12,-167.51 1001.46,-160.43 998.06,-164.88"/>
<text text-anchor="middle" x="919.35" y="-130.05" font-family="PingFang SC" font-size="12.00">码控制量</text>
</g>
<!-- nat -->
<g id="node8" class="node">
<title>nat</title>
<path fill="none" stroke="#333333" stroke-width="1.2" d="M1095.9,-108.15C1095.9,-108.15 994.23,-108.15 994.23,-108.15 988.23,-108.15 982.23,-102.15 982.23,-96.15 982.23,-96.15 982.23,-24.75 982.23,-24.75 982.23,-18.75 988.23,-12.75 994.23,-12.75 994.23,-12.75 1095.9,-12.75 1095.9,-12.75 1101.9,-12.75 1107.9,-18.75 1107.9,-24.75 1107.9,-24.75 1107.9,-96.15 1107.9,-96.15 1107.9,-102.15 1101.9,-108.15 1095.9,-108.15"/>
<text text-anchor="middle" x="1045.06" y="-87.65" font-family="PingFang SC" font-size="14.00">自然测量量</text>
<text text-anchor="middle" x="1045.06" y="-67.4" font-family="PingFang SC" font-size="14.00">码时延估计</text>
<text text-anchor="middle" x="1045.06" y="-47.15" font-family="PingFang SC" font-size="14.00">载波相位累计量</text>
<text text-anchor="middle" x="1045.06" y="-26.9" font-family="PingFang SC" font-size="14.00">载波频率估计</text>
</g>
<!-- dll&#45;&gt;nat -->
<g id="edge10" class="edge">
<title>dll&#45;&gt;nat</title>
<path fill="none" stroke="#444444" stroke-width="1.1" d="M832.55,-30.69C881.39,-33.94 949.35,-38.45 949.35,-38.45 949.35,-38.45 959.27,-40.75 972.69,-43.87"/>
<polygon fill="#444444" stroke="#444444" stroke-width="1.1" points="971.9,-46.56 980.32,-45.64 973.16,-41.11 971.9,-46.56"/>
</g>
<!-- car&#45;&gt;nco -->
<g id="edge7" class="edge">
<title>car&#45;&gt;nco</title>
<path fill="none" stroke="#444444" stroke-width="1.1" d="M864.7,-142.7C896.62,-152.27 933.17,-163.22 964.91,-172.73"/>
<polygon fill="#444444" stroke="#444444" stroke-width="1.1" points="964.1,-175.41 972.57,-175.03 965.71,-170.05 964.1,-175.41"/>
<text text-anchor="middle" x="919.35" y="-172.58" font-family="PingFang SC" font-size="12.00">载波控制量</text>
</g>
<!-- car&#45;&gt;nat -->
<g id="edge11" class="edge">
<title>car&#45;&gt;nat</title>
<path fill="none" stroke="#444444" stroke-width="1.1" d="M864.62,-106.24C906.65,-99.9 949.35,-93.45 949.35,-93.45 949.35,-93.45 959.46,-89.93 973.07,-85.18"/>
<polygon fill="#444444" stroke="#444444" stroke-width="1.1" points="973.74,-87.92 980.37,-82.64 971.9,-82.63 973.74,-87.92"/>
</g>
<!-- nco&#45;&gt;wipeoff -->
<g id="edge8" class="edge">
<title>nco&#45;&gt;wipeoff</title>
<path fill="none" stroke="#444444" stroke-width="1.1" d="M974.23,-216.36C960.04,-220.4 949.35,-223.45 949.35,-223.45 949.35,-223.45 478.01,-247.45 478.01,-247.45 478.01,-247.45 471.36,-247.53 461.87,-247.65"/>
<polygon fill="#444444" stroke="#444444" stroke-width="1.1" points="462.1,-244.85 454.14,-247.75 462.17,-250.45 462.1,-244.85"/>
<text text-anchor="middle" x="652.18" y="-245.64" font-family="PingFang SC" font-size="12.00">本地载波</text>
</g>
<!-- nco&#45;&gt;corr -->
<g id="edge9" class="edge">
<title>nco&#45;&gt;corr</title>
<path fill="none" stroke="#444444" stroke-width="1.1" d="M974.11,-195.74C877.13,-194.75 703.55,-192.98 612.89,-192.05"/>
<polygon fill="#444444" stroke="#444444" stroke-width="1.1" points="613.01,-189.25 604.98,-191.97 612.95,-194.85 613.01,-189.25"/>
<text text-anchor="middle" x="782.77" y="-200.46" font-family="PingFang SC" font-size="12.00">本地码</text>
</g>
<!-- obs -->
<g id="node9" class="node">
<title>obs</title>
<path fill="none" stroke="#333333" stroke-width="1.2" d="M1237.69,-78.45C1237.69,-78.45 1178.77,-78.45 1178.77,-78.45 1172.77,-78.45 1166.77,-72.45 1166.77,-66.45 1166.77,-66.45 1166.77,-54.45 1166.77,-54.45 1166.77,-48.45 1172.77,-42.45 1178.77,-42.45 1178.77,-42.45 1237.69,-42.45 1237.69,-42.45 1243.69,-42.45 1249.69,-48.45 1249.69,-54.45 1249.69,-54.45 1249.69,-66.45 1249.69,-66.45 1249.69,-72.45 1243.69,-78.45 1237.69,-78.45"/>
<text text-anchor="middle" x="1208.23" y="-57.27" font-family="PingFang SC" font-size="14.00">观测形成</text>
</g>
<!-- nat&#45;&gt;obs -->
<g id="edge12" class="edge">
<title>nat&#45;&gt;obs</title>
<path fill="none" stroke="#444444" stroke-width="1.1" d="M1108.37,-60.45C1124.51,-60.45 1141.68,-60.45 1157.11,-60.45"/>
<polygon fill="#444444" stroke="#444444" stroke-width="1.1" points="1156.79,-63.25 1164.79,-60.45 1156.79,-57.65 1156.79,-63.25"/>
</g>
<!-- nav -->
<g id="node10" class="node">
<title>nav</title>
<path fill="none" stroke="#333333" stroke-width="1.2" d="M1387.36,-78.45C1387.36,-78.45 1312.69,-78.45 1312.69,-78.45 1306.69,-78.45 1300.69,-72.45 1300.69,-66.45 1300.69,-66.45 1300.69,-54.45 1300.69,-54.45 1300.69,-48.45 1306.69,-42.45 1312.69,-42.45 1312.69,-42.45 1387.36,-42.45 1387.36,-42.45 1393.36,-42.45 1399.36,-48.45 1399.36,-54.45 1399.36,-54.45 1399.36,-66.45 1399.36,-66.45 1399.36,-72.45 1393.36,-78.45 1387.36,-78.45"/>
<text text-anchor="middle" x="1350.03" y="-57.27" font-family="PingFang SC" font-size="14.00">WLS / EKF</text>
</g>
<!-- obs&#45;&gt;nav -->
<g id="edge13" class="edge">
<title>obs&#45;&gt;nav</title>
<path fill="none" stroke="#444444" stroke-width="1.1" d="M1250.04,-60.45C1262.81,-60.45 1277.15,-60.45 1290.88,-60.45"/>
<polygon fill="#444444" stroke="#444444" stroke-width="1.1" points="1290.59,-63.25 1298.59,-60.45 1290.59,-57.65 1290.59,-63.25"/>
</g>
</g>
</svg>
