<?xml version="1.0" encoding="UTF-8" standalone="no"?>
<!DOCTYPE svg PUBLIC "-//W3C//DTD SVG 1.1//EN"
 "http://www.w3.org/Graphics/SVG/1.1/DTD/svg11.dtd">
<!-- Generated by graphviz version 12.2.1 (20241206.2353)
 -->
<!-- Title: legacy_receiver_chain Pages: 1 -->
<svg width="1336pt" height="235pt"
 viewBox="14.40 14.40 1321.84 220.85" xmlns="http://www.w3.org/2000/svg" xmlns:xlink="http://www.w3.org/1999/xlink">
<g id="graph0" class="graph" transform="scale(1 1) rotate(0) translate(18.4 216.85)">
<title>legacy_receiver_chain</title>
<polygon fill="white" stroke="none" points="-4,4 -4,-202.45 1303.44,-202.45 1303.44,4 -4,4"/>
<!-- rx -->
<g id="node1" class="node">
<title>rx</title>
<path fill="none" stroke="#333333" stroke-width="1.2" d="M85.17,-198.45C85.17,-198.45 12,-198.45 12,-198.45 6,-198.45 0,-192.45 0,-186.45 0,-186.45 0,-155.55 0,-155.55 0,-149.55 6,-143.55 12,-143.55 12,-143.55 85.17,-143.55 85.17,-143.55 91.17,-143.55 97.17,-149.55 97.17,-155.55 97.17,-155.55 97.17,-186.45 97.17,-186.45 97.17,-192.45 91.17,-198.45 85.17,-198.45"/>
<text text-anchor="middle" x="48.59" y="-177.95" font-family="PingFang SC" font-size="14.00">接收复信号</text>
<text text-anchor="middle" x="48.59" y="-157.7" font-family="PingFang SC" font-size="14.00">近似无数据</text>
</g>
<!-- acq -->
<g id="node2" class="node">
<title>acq</title>
<path fill="none" stroke="#333333" stroke-width="1.2" d="M277.59,-198.45C277.59,-198.45 160.17,-198.45 160.17,-198.45 154.17,-198.45 148.17,-192.45 148.17,-186.45 148.17,-186.45 148.17,-155.55 148.17,-155.55 148.17,-149.55 154.17,-143.55 160.17,-143.55 160.17,-143.55 277.59,-143.55 277.59,-143.55 283.59,-143.55 289.59,-149.55 289.59,-155.55 289.59,-155.55 289.59,-186.45 289.59,-186.45 289.59,-192.45 283.59,-198.45 277.59,-198.45"/>
<text text-anchor="middle" x="218.88" y="-177.95" font-family="PingFang SC" font-size="14.00">捕获</text>
<text text-anchor="middle" x="218.88" y="-157.7" font-family="PingFang SC" font-size="14.00">粗码时延 / 粗频偏</text>
</g>
<!-- rx&#45;&gt;acq -->
<g id="edge1" class="edge">
<title>rx&#45;&gt;acq</title>
<path fill="none" stroke="#444444" stroke-width="1.1" d="M97.36,-171C110.07,-171 124.16,-171 138.08,-171"/>
<polygon fill="#444444" stroke="#444444" stroke-width="1.1" points="138.01,-173.8 146.01,-171 138.01,-168.2 138.01,-173.8"/>
</g>
<!-- corr -->
<g id="node3" class="node">
<title>corr</title>
<path fill="none" stroke="#333333" stroke-width="1.2" d="M434.39,-198.45C434.39,-198.45 358.22,-198.45 358.22,-198.45 352.22,-198.45 346.22,-192.45 346.22,-186.45 346.22,-186.45 346.22,-155.55 346.22,-155.55 346.22,-149.55 352.22,-143.55 358.22,-143.55 358.22,-143.55 434.39,-143.55 434.39,-143.55 440.39,-143.55 446.39,-149.55 446.39,-155.55 446.39,-155.55 446.39,-186.45 446.39,-186.45 446.39,-192.45 440.39,-198.45 434.39,-198.45"/>
<text text-anchor="middle" x="396.3" y="-177.95" font-family="PingFang SC" font-size="14.00">相关器</text>
<text text-anchor="middle" x="396.3" y="-157.7" font-family="PingFang SC" font-size="14.00">早 / 准 / 晚</text>
</g>
<!-- acq&#45;&gt;corr -->
<g id="edge2" class="edge">
<title>acq&#45;&gt;corr</title>
<path fill="none" stroke="#444444" stroke-width="1.1" d="M289.97,-171C305.31,-171 321.4,-171 336.27,-171"/>
<polygon fill="#444444" stroke="#444444" stroke-width="1.1" points="336.17,-173.8 344.17,-171 336.17,-168.2 336.17,-173.8"/>
</g>
<!-- ctl -->
<g id="node4" class="node">
<title>ctl</title>
<path fill="none" stroke="#333333" stroke-width="1.2" d="M724.43,-117.45C724.43,-117.45 574.01,-117.45 574.01,-117.45 568.01,-117.45 562.01,-111.45 562.01,-105.45 562.01,-105.45 562.01,-74.55 562.01,-74.55 562.01,-68.55 568.01,-62.55 574.01,-62.55 574.01,-62.55 724.43,-62.55 724.43,-62.55 730.43,-62.55 736.43,-68.55 736.43,-74.55 736.43,-74.55 736.43,-105.45 736.43,-105.45 736.43,-111.45 730.43,-117.45 724.43,-117.45"/>
<text text-anchor="middle" x="649.22" y="-96.95" font-family="PingFang SC" font-size="14.00">整体更新律</text>
<text text-anchor="middle" x="649.22" y="-76.7" font-family="PingFang SC" font-size="14.00">码环 + 载波环 + 辅助项</text>
</g>
<!-- corr&#45;&gt;ctl -->
<g id="edge3" class="edge">
<title>corr&#45;&gt;ctl</title>
<path fill="none" stroke="#444444" stroke-width="1.1" d="M446.87,-155C477.03,-145.26 516.54,-132.51 552.58,-120.87"/>
<polygon fill="#444444" stroke="#444444" stroke-width="1.1" points="553.32,-123.58 560.07,-118.46 551.6,-118.25 553.32,-123.58"/>
</g>
<!-- state -->
<g id="node5" class="node">
<title>state</title>
<path fill="none" stroke="#333333" stroke-width="1.2" d="M901.1,-137.7C901.1,-137.7 799.43,-137.7 799.43,-137.7 793.43,-137.7 787.43,-131.7 787.43,-125.7 787.43,-125.7 787.43,-54.3 787.43,-54.3 787.43,-48.3 793.43,-42.3 799.43,-42.3 799.43,-42.3 901.1,-42.3 901.1,-42.3 907.1,-42.3 913.1,-48.3 913.1,-54.3 913.1,-54.3 913.1,-125.7 913.1,-125.7 913.1,-131.7 907.1,-137.7 901.1,-137.7"/>
<text text-anchor="middle" x="850.27" y="-117.2" font-family="PingFang SC" font-size="14.00">内部状态</text>
<text text-anchor="middle" x="850.27" y="-96.95" font-family="PingFang SC" font-size="14.00">码时延估计</text>
<text text-anchor="middle" x="850.27" y="-76.7" font-family="PingFang SC" font-size="14.00">载波相位累计量</text>
<text text-anchor="middle" x="850.27" y="-56.45" font-family="PingFang SC" font-size="14.00">载波频率估计</text>
</g>
<!-- ctl&#45;&gt;state -->
<g id="edge4" class="edge">
<title>ctl&#45;&gt;state</title>
<path fill="none" stroke="#444444" stroke-width="1.1" d="M736.66,-90C750.33,-90 764.34,-90 777.63,-90"/>
<polygon fill="#444444" stroke="#444444" stroke-width="1.1" points="777.5,-92.8 785.5,-90 777.5,-87.2 777.5,-92.8"/>
</g>
<!-- jump -->
<g id="node6" class="node">
<title>jump</title>
<path fill="none" stroke="#a13a2f" stroke-width="1.2" d="M1137.77,-117.45C1137.77,-117.45 976.1,-117.45 976.1,-117.45 970.1,-117.45 964.1,-111.45 964.1,-105.45 964.1,-105.45 964.1,-74.55 964.1,-74.55 964.1,-68.55 970.1,-62.55 976.1,-62.55 976.1,-62.55 1137.77,-62.55 1137.77,-62.55 1143.77,-62.55 1149.77,-68.55 1149.77,-74.55 1149.77,-74.55 1149.77,-105.45 1149.77,-105.45 1149.77,-111.45 1143.77,-117.45 1137.77,-117.45"/>
<text text-anchor="middle" x="1056.94" y="-96.95" font-family="PingFang SC" font-size="14.00" fill="#a13a2f">直接改名输出</text>
<text text-anchor="middle" x="1056.94" y="-76.7" font-family="PingFang SC" font-size="14.00" fill="#a13a2f">伪距 / 载波相位 / 多普勒</text>
</g>
<!-- state&#45;&gt;jump -->
<g id="edge5" class="edge">
<title>state&#45;&gt;jump</title>
<path fill="none" stroke="#444444" stroke-width="1.1" d="M913.51,-90C926.41,-90 940.32,-90 954.21,-90"/>
<polygon fill="#444444" stroke="#444444" stroke-width="1.1" points="954.15,-92.8 962.15,-90 954.15,-87.2 954.15,-92.8"/>
</g>
<!-- nav -->
<g id="node7" class="node">
<title>nav</title>
<path fill="none" stroke="#333333" stroke-width="1.2" d="M1287.44,-108C1287.44,-108 1212.77,-108 1212.77,-108 1206.77,-108 1200.77,-102 1200.77,-96 1200.77,-96 1200.77,-84 1200.77,-84 1200.77,-78 1206.77,-72 1212.77,-72 1212.77,-72 1287.44,-72 1287.44,-72 1293.44,-72 1299.44,-78 1299.44,-84 1299.44,-84 1299.44,-96 1299.44,-96 1299.44,-102 1293.44,-108 1287.44,-108"/>
<text text-anchor="middle" x="1250.11" y="-86.83" font-family="PingFang SC" font-size="14.00">WLS / EKF</text>
</g>
<!-- jump&#45;&gt;nav -->
<g id="edge6" class="edge">
<title>jump&#45;&gt;nav</title>
<path fill="none" stroke="#444444" stroke-width="1.1" d="M1150.16,-90C1164.01,-90 1177.95,-90 1190.82,-90"/>
<polygon fill="#444444" stroke="#444444" stroke-width="1.1" points="1190.77,-92.8 1198.77,-90 1190.77,-87.2 1190.77,-92.8"/>
</g>
<!-- truth_code -->
<g id="node8" class="node">
<title>truth_code</title>
<path fill="none" stroke="#c86f16" stroke-width="1.2" stroke-dasharray="5,2" d="M440.01,-108C440.01,-108 352.59,-108 352.59,-108 346.59,-108 340.59,-102 340.59,-96 340.59,-96 340.59,-84 340.59,-84 340.59,-78 346.59,-72 352.59,-72 352.59,-72 440.01,-72 440.01,-72 446.01,-72 452.01,-78 452.01,-84 452.01,-84 452.01,-96 452.01,-96 452.01,-102 446.01,-108 440.01,-108"/>
<text text-anchor="middle" x="396.3" y="-86.83" font-family="PingFang SC" font-size="14.00" fill="#c86f16">真值码率辅助</text>
</g>
<!-- truth_code&#45;&gt;ctl -->
<g id="edge7" class="edge">
<title>truth_code&#45;&gt;ctl</title>
<path fill="none" stroke="#c86f16" stroke-width="1.1" stroke-dasharray="5,2" d="M452.37,-90C481.64,-90 518.47,-90 552.28,-90"/>
<polygon fill="#c86f16" stroke="#c86f16" stroke-width="1.1" points="552.06,-92.8 560.06,-90 552.06,-87.2 552.06,-92.8"/>
<text text-anchor="middle" x="507.01" y="-95.85" font-family="PingFang SC" font-size="12.00">运行时注入</text>
</g>
<!-- truth_car -->
<g id="node9" class="node">
<title>truth_car</title>
<path fill="none" stroke="#c86f16" stroke-width="1.2" stroke-dasharray="5,2" d="M440.01,-36C440.01,-36 352.59,-36 352.59,-36 346.59,-36 340.59,-30 340.59,-24 340.59,-24 340.59,-12 340.59,-12 340.59,-6 346.59,0 352.59,0 352.59,0 440.01,0 440.01,0 446.01,0 452.01,-6 452.01,-12 452.01,-12 452.01,-24 452.01,-24 452.01,-30 446.01,-36 440.01,-36"/>
<text text-anchor="middle" x="396.3" y="-14.82" font-family="PingFang SC" font-size="14.00" fill="#c86f16">真值频率辅助</text>
</g>
<!-- truth_car&#45;&gt;ctl -->
<g id="edge8" class="edge">
<title>truth_car&#45;&gt;ctl</title>
<path fill="none" stroke="#c86f16" stroke-width="1.1" stroke-dasharray="5,2" d="M452.37,-33.8C481.76,-42.24 518.79,-52.86 552.71,-62.59"/>
<polygon fill="#c86f16" stroke="#c86f16" stroke-width="1.1" points="551.66,-65.21 560.12,-64.72 553.2,-59.82 551.66,-65.21"/>
<text text-anchor="middle" x="507.01" y="-62.01" font-family="PingFang SC" font-size="12.00">运行时注入</text>
</g>
</g>
</svg>
