<?xml version="1.0" encoding="UTF-8" standalone="no"?>
<!DOCTYPE svg PUBLIC "-//W3C//DTD SVG 1.1//EN"
 "http://www.w3.org/Graphics/SVG/1.1/DTD/svg11.dtd">
<!-- Generated by graphviz version 12.2.1 (20241206.2353)
 -->
<!-- Title: observable_formation_chain Pages: 1 -->
<svg width="1003pt" height="187pt"
 viewBox="14.40 14.40 988.25 172.30" xmlns="http://www.w3.org/2000/svg" xmlns:xlink="http://www.w3.org/1999/xlink">
<g id="graph0" class="graph" transform="scale(1 1) rotate(0) translate(18.4 168.3)">
<title>observable_formation_chain</title>
<polygon fill="white" stroke="none" points="-4,4 -4,-153.9 969.85,-153.9 969.85,4 -4,4"/>
<!-- nat -->
<g id="node1" class="node">
<title>nat</title>
<path fill="none" stroke="#333333" stroke-width="1.2" d="M113.67,-122.15C113.67,-122.15 12,-122.15 12,-122.15 6,-122.15 0,-116.15 0,-110.15 0,-110.15 0,-38.75 0,-38.75 0,-32.75 6,-26.75 12,-26.75 12,-26.75 113.67,-26.75 113.67,-26.75 119.67,-26.75 125.67,-32.75 125.67,-38.75 125.67,-38.75 125.67,-110.15 125.67,-110.15 125.67,-116.15 119.67,-122.15 113.67,-122.15"/>
<text text-anchor="middle" x="62.84" y="-101.65" font-family="PingFang SC" font-size="14.00">自然测量量</text>
<text text-anchor="middle" x="62.84" y="-81.4" font-family="PingFang SC" font-size="14.00">码时延估计</text>
<text text-anchor="middle" x="62.84" y="-61.15" font-family="PingFang SC" font-size="14.00">载波相位累计量</text>
<text text-anchor="middle" x="62.84" y="-40.9" font-family="PingFang SC" font-size="14.00">载波频率估计</text>
</g>
<!-- time -->
<g id="node2" class="node">
<title>time</title>
<path fill="none" stroke="#333333" stroke-width="1.2" d="M416.01,-149.9C416.01,-149.9 328.59,-149.9 328.59,-149.9 322.59,-149.9 316.59,-143.9 316.59,-137.9 316.59,-137.9 316.59,-107 316.59,-107 316.59,-101 322.59,-95 328.59,-95 328.59,-95 416.01,-95 416.01,-95 422.01,-95 428.01,-101 428.01,-107 428.01,-107 428.01,-137.9 428.01,-137.9 428.01,-143.9 422.01,-149.9 416.01,-149.9"/>
<text text-anchor="middle" x="372.3" y="-129.4" font-family="PingFang SC" font-size="14.00">接收时标解释</text>
<text text-anchor="middle" x="372.3" y="-109.15" font-family="PingFang SC" font-size="14.00">发射时刻恢复</text>
</g>
<!-- nat&#45;&gt;time -->
<g id="edge1" class="edge">
<title>nat&#45;&gt;time</title>
<path fill="none" stroke="#444444" stroke-width="1.1" d="M126.06,-84.16C178.61,-92.37 253.61,-104.08 306.8,-112.38"/>
<polygon fill="#444444" stroke="#444444" stroke-width="1.1" points="306.15,-115.11 314.49,-113.58 307.02,-109.58 306.15,-115.11"/>
</g>
<!-- wave -->
<g id="node3" class="node">
<title>wave</title>
<path fill="none" stroke="#333333" stroke-width="1.2" d="M250.59,-53.45C250.59,-53.45 191.67,-53.45 191.67,-53.45 185.67,-53.45 179.67,-47.45 179.67,-41.45 179.67,-41.45 179.67,-29.45 179.67,-29.45 179.67,-23.45 185.67,-17.45 191.67,-17.45 191.67,-17.45 250.59,-17.45 250.59,-17.45 256.59,-17.45 262.59,-23.45 262.59,-29.45 262.59,-29.45 262.59,-41.45 262.59,-41.45 262.59,-47.45 256.59,-53.45 250.59,-53.45"/>
<text text-anchor="middle" x="221.13" y="-32.28" font-family="PingFang SC" font-size="14.00">波长换算</text>
</g>
<!-- nat&#45;&gt;wave -->
<g id="edge4" class="edge">
<title>nat&#45;&gt;wave</title>
<path fill="none" stroke="#444444" stroke-width="1.1" d="M126.06,-58.92C140.72,-55.26 156.17,-51.41 170.21,-47.91"/>
<polygon fill="#444444" stroke="#444444" stroke-width="1.1" points="170.51,-50.72 177.6,-46.06 169.16,-45.28 170.51,-50.72"/>
</g>
<!-- model -->
<g id="node5" class="node">
<title>model</title>
<path fill="none" stroke="#333333" stroke-width="1.2" d="M714.18,-101.9C714.18,-101.9 494.01,-101.9 494.01,-101.9 488.01,-101.9 482.01,-95.9 482.01,-89.9 482.01,-89.9 482.01,-59 482.01,-59 482.01,-53 488.01,-47 494.01,-47 494.01,-47 714.18,-47 714.18,-47 720.18,-47 726.18,-53 726.18,-59 726.18,-59 726.18,-89.9 726.18,-89.9 726.18,-95.9 720.18,-101.9 714.18,-101.9"/>
<text text-anchor="middle" x="604.1" y="-81.4" font-family="PingFang SC" font-size="14.00">统一观测方程</text>
<text text-anchor="middle" x="604.1" y="-61.15" font-family="PingFang SC" font-size="14.00">几何项 / 钟差项 / 传播项 / 硬件项</text>
</g>
<!-- time&#45;&gt;model -->
<g id="edge2" class="edge">
<title>time&#45;&gt;model</title>
<path fill="none" stroke="#444444" stroke-width="1.1" d="M428.34,-110.95C441.88,-108.12 456.96,-104.97 472.43,-101.74"/>
<polygon fill="#444444" stroke="#444444" stroke-width="1.1" points="472.69,-104.55 479.95,-100.17 471.54,-99.07 472.69,-104.55"/>
</g>
<!-- sign -->
<g id="node4" class="node">
<title>sign</title>
<path fill="none" stroke="#333333" stroke-width="1.2" d="M401.76,-54.9C401.76,-54.9 342.84,-54.9 342.84,-54.9 336.84,-54.9 330.84,-48.9 330.84,-42.9 330.84,-42.9 330.84,-12 330.84,-12 330.84,-6 336.84,0 342.84,0 342.84,0 401.76,0 401.76,0 407.76,0 413.76,-6 413.76,-12 413.76,-12 413.76,-42.9 413.76,-42.9 413.76,-48.9 407.76,-54.9 401.76,-54.9"/>
<text text-anchor="middle" x="372.3" y="-34.4" font-family="PingFang SC" font-size="14.00">符号约定</text>
<text text-anchor="middle" x="372.3" y="-14.15" font-family="PingFang SC" font-size="14.00">单位约定</text>
</g>
<!-- wave&#45;&gt;sign -->
<g id="edge5" class="edge">
<title>wave&#45;&gt;sign</title>
<path fill="none" stroke="#444444" stroke-width="1.1" d="M262.89,-33.26C280.82,-32.3 302.05,-31.16 320.95,-30.15"/>
<polygon fill="#444444" stroke="#444444" stroke-width="1.1" points="321.09,-32.95 328.93,-29.72 320.79,-27.36 321.09,-32.95"/>
</g>
<!-- sign&#45;&gt;model -->
<g id="edge6" class="edge">
<title>sign&#45;&gt;model</title>
<path fill="none" stroke="#444444" stroke-width="1.1" d="M414.12,-35.8C430.86,-39.22 451.25,-43.39 472.38,-47.71"/>
<polygon fill="#444444" stroke="#444444" stroke-width="1.1" points="471.76,-50.45 480.16,-49.31 472.89,-44.96 471.76,-50.45"/>
</g>
<!-- std -->
<g id="node6" class="node">
<title>std</title>
<path fill="none" stroke="#333333" stroke-width="1.2" d="M953.85,-101.9C953.85,-101.9 792.18,-101.9 792.18,-101.9 786.18,-101.9 780.18,-95.9 780.18,-89.9 780.18,-89.9 780.18,-59 780.18,-59 780.18,-53 786.18,-47 792.18,-47 792.18,-47 953.85,-47 953.85,-47 959.85,-47 965.85,-53 965.85,-59 965.85,-59 965.85,-89.9 965.85,-89.9 965.85,-95.9 959.85,-101.9 953.85,-101.9"/>
<text text-anchor="middle" x="873.02" y="-81.4" font-family="PingFang SC" font-size="14.00">标准观测量</text>
<text text-anchor="middle" x="873.02" y="-61.15" font-family="PingFang SC" font-size="14.00">伪距 / 载波相位 / 距离率</text>
</g>
<!-- model&#45;&gt;std -->
<g id="edge3" class="edge">
<title>model&#45;&gt;std</title>
<path fill="none" stroke="#444444" stroke-width="1.1" d="M726.45,-74.45C741.14,-74.45 756.02,-74.45 770.38,-74.45"/>
<polygon fill="#444444" stroke="#444444" stroke-width="1.1" points="770.07,-77.25 778.07,-74.45 770.07,-71.65 770.07,-77.25"/>
</g>
</g>
</svg>
