<?xml version="1.0" encoding="UTF-8" standalone="no"?>
<!DOCTYPE svg PUBLIC "-//W3C//DTD SVG 1.1//EN"
 "http://www.w3.org/Graphics/SVG/1.1/DTD/svg11.dtd">
<!-- Generated by graphviz version 12.2.1 (20241206.2353)
 -->
<!-- Title: textbook_dll_loop Pages: 1 -->
<svg width="932pt" height="184pt"
 viewBox="14.40 14.40 917.67 169.40" xmlns="http://www.w3.org/2000/svg" xmlns:xlink="http://www.w3.org/1999/xlink">
<g id="graph0" class="graph" transform="scale(1 1) rotate(0) translate(18.4 165.4)">
<title>textbook_dll_loop</title>
<polygon fill="white" stroke="none" points="-4,4 -4,-151 899.27,-151 899.27,4 -4,4"/>
<!-- rx -->
<g id="node1" class="node">
<title>rx</title>
<path fill="none" stroke="#333333" stroke-width="1.2" d="M85.17,-36C85.17,-36 12,-36 12,-36 6,-36 0,-30 0,-24 0,-24 0,-12 0,-12 0,-6 6,0 12,0 12,0 85.17,0 85.17,0 91.17,0 97.17,-6 97.17,-12 97.17,-12 97.17,-24 97.17,-24 97.17,-30 91.17,-36 85.17,-36"/>
<text text-anchor="middle" x="48.59" y="-14.82" font-family="PingFang SC" font-size="14.00">接收复基带</text>
</g>
<!-- corr -->
<g id="node2" class="node">
<title>corr</title>
<path fill="none" stroke="#333333" stroke-width="1.2" d="M278.09,-36C278.09,-36 159.17,-36 159.17,-36 153.17,-36 147.17,-30 147.17,-24 147.17,-24 147.17,-12 147.17,-12 147.17,-6 153.17,0 159.17,0 159.17,0 278.09,0 278.09,0 284.09,0 290.09,-6 290.09,-12 290.09,-12 290.09,-24 290.09,-24 290.09,-30 284.09,-36 278.09,-36"/>
<text text-anchor="middle" x="218.63" y="-14.82" font-family="PingFang SC" font-size="14.00">早 / 准 / 晚相关器</text>
</g>
<!-- rx&#45;&gt;corr -->
<g id="edge1" class="edge">
<title>rx&#45;&gt;corr</title>
<path fill="none" stroke="#444444" stroke-width="1.1" d="M97.29,-18C109.83,-18 123.7,-18 137.43,-18"/>
<polygon fill="#444444" stroke="#444444" stroke-width="1.1" points="137.24,-20.8 145.24,-18 137.24,-15.2 137.24,-20.8"/>
</g>
<!-- disc -->
<g id="node3" class="node">
<title>disc</title>
<path fill="none" stroke="#333333" stroke-width="1.2" d="M427.51,-89.45C427.51,-89.45 352.09,-89.45 352.09,-89.45 346.09,-89.45 340.09,-83.45 340.09,-77.45 340.09,-77.45 340.09,-46.55 340.09,-46.55 340.09,-40.55 346.09,-34.55 352.09,-34.55 352.09,-34.55 427.51,-34.55 427.51,-34.55 433.51,-34.55 439.51,-40.55 439.51,-46.55 439.51,-46.55 439.51,-77.45 439.51,-77.45 439.51,-83.45 433.51,-89.45 427.51,-89.45"/>
<text text-anchor="middle" x="389.8" y="-68.95" font-family="PingFang SC" font-size="14.00">DLL 判别器</text>
<text text-anchor="middle" x="389.8" y="-48.7" font-family="PingFang SC" font-size="14.00">早晚门差分</text>
</g>
<!-- corr&#45;&gt;disc -->
<g id="edge2" class="edge">
<title>corr&#45;&gt;disc</title>
<path fill="none" stroke="#444444" stroke-width="1.1" d="M290.39,-36.41C303.73,-39.87 317.53,-43.46 330.43,-46.82"/>
<polygon fill="#444444" stroke="#444444" stroke-width="1.1" points="329.59,-49.49 338.03,-48.8 331,-44.07 329.59,-49.49"/>
</g>
<!-- lf -->
<g id="node4" class="node">
<title>lf</title>
<path fill="none" stroke="#333333" stroke-width="1.2" d="M574.68,-80C574.68,-80 501.51,-80 501.51,-80 495.51,-80 489.51,-74 489.51,-68 489.51,-68 489.51,-56 489.51,-56 489.51,-50 495.51,-44 501.51,-44 501.51,-44 574.68,-44 574.68,-44 580.68,-44 586.68,-50 586.68,-56 586.68,-56 586.68,-68 586.68,-68 586.68,-74 580.68,-80 574.68,-80"/>
<text text-anchor="middle" x="538.1" y="-58.83" font-family="PingFang SC" font-size="14.00">码环滤波器</text>
</g>
<!-- disc&#45;&gt;lf -->
<g id="edge3" class="edge">
<title>disc&#45;&gt;lf</title>
<path fill="none" stroke="#444444" stroke-width="1.1" d="M439.92,-62C452.75,-62 466.68,-62 479.88,-62"/>
<polygon fill="#444444" stroke="#444444" stroke-width="1.1" points="479.68,-64.8 487.68,-62 479.68,-59.2 479.68,-64.8"/>
</g>
<!-- nco -->
<g id="node5" class="node">
<title>nco</title>
<path fill="none" stroke="#333333" stroke-width="1.2" d="M710.98,-147C710.98,-147 659.56,-147 659.56,-147 653.56,-147 647.56,-141 647.56,-135 647.56,-135 647.56,-123 647.56,-123 647.56,-117 653.56,-111 659.56,-111 659.56,-111 710.98,-111 710.98,-111 716.98,-111 722.98,-117 722.98,-123 722.98,-123 722.98,-135 722.98,-135 722.98,-141 716.98,-147 710.98,-147"/>
<text text-anchor="middle" x="685.27" y="-125.83" font-family="PingFang SC" font-size="14.00">码 NCO</text>
</g>
<!-- lf&#45;&gt;nco -->
<g id="edge4" class="edge">
<title>lf&#45;&gt;nco</title>
<path fill="none" stroke="#444444" stroke-width="1.1" d="M579.15,-80.49C597.63,-89.02 619.67,-99.19 638.78,-108.01"/>
<polygon fill="#444444" stroke="#444444" stroke-width="1.1" points="637.38,-110.45 645.82,-111.26 639.73,-105.36 637.38,-110.45"/>
</g>
<!-- tau -->
<g id="node7" class="node">
<title>tau</title>
<path fill="none" stroke="#333333" stroke-width="1.2" d="M721.85,-71C721.85,-71 648.68,-71 648.68,-71 642.68,-71 636.68,-65 636.68,-59 636.68,-59 636.68,-47 636.68,-47 636.68,-41 642.68,-35 648.68,-35 648.68,-35 721.85,-35 721.85,-35 727.85,-35 733.85,-41 733.85,-47 733.85,-47 733.85,-59 733.85,-59 733.85,-65 727.85,-71 721.85,-71"/>
<text text-anchor="middle" x="685.27" y="-49.83" font-family="PingFang SC" font-size="14.00">码时延估计</text>
</g>
<!-- lf&#45;&gt;tau -->
<g id="edge7" class="edge">
<title>lf&#45;&gt;tau</title>
<path fill="none" stroke="#444444" stroke-width="1.1" d="M587.03,-59.03C599.79,-58.24 613.7,-57.37 626.91,-56.56"/>
<polygon fill="#444444" stroke="#444444" stroke-width="1.1" points="626.91,-59.36 634.72,-56.07 626.56,-53.77 626.91,-59.36"/>
</g>
<!-- code -->
<g id="node6" class="node">
<title>code</title>
<path fill="none" stroke="#333333" stroke-width="1.2" d="M883.27,-69C883.27,-69 795.85,-69 795.85,-69 789.85,-69 783.85,-63 783.85,-57 783.85,-57 783.85,-45 783.85,-45 783.85,-39 789.85,-33 795.85,-33 795.85,-33 883.27,-33 883.27,-33 889.27,-33 895.27,-39 895.27,-45 895.27,-45 895.27,-57 895.27,-57 895.27,-63 889.27,-69 883.27,-69"/>
<text text-anchor="middle" x="839.56" y="-47.83" font-family="PingFang SC" font-size="14.00">本地码发生器</text>
</g>
<!-- nco&#45;&gt;code -->
<g id="edge5" class="edge">
<title>nco&#45;&gt;code</title>
<path fill="none" stroke="#444444" stroke-width="1.1" d="M722.36,-110.52C743.81,-99.53 771.18,-85.51 793.97,-73.84"/>
<polygon fill="#444444" stroke="#444444" stroke-width="1.1" points="795.14,-76.39 800.98,-70.25 792.58,-71.4 795.14,-76.39"/>
</g>
<!-- code&#45;&gt;corr -->
<g id="edge6" class="edge">
<title>code&#45;&gt;corr</title>
<path fill="none" stroke="#444444" stroke-width="1.1" d="M784.98,-32.58C759.22,-23.72 733.85,-15 733.85,-15 733.85,-15 340.09,-15 340.09,-15 340.09,-15 321.96,-15.45 299.77,-16"/>
<polygon fill="#444444" stroke="#444444" stroke-width="1.1" points="299.99,-13.2 292.06,-16.2 300.13,-18.8 299.99,-13.2"/>
</g>
</g>
</svg>
