<?xml version="1.0" encoding="UTF-8" standalone="no"?>
<!DOCTYPE svg PUBLIC "-//W3C//DTD SVG 1.1//EN"
 "http://www.w3.org/Graphics/SVG/1.1/DTD/svg11.dtd">
<!-- Generated by graphviz version 12.2.1 (20241206.2353)
 -->
<!-- Title: textbook_receiver_chain Pages: 1 -->
<svg width="1724pt" height="272pt"
 viewBox="14.40 14.40 1709.68 257.55" xmlns="http://www.w3.org/2000/svg" xmlns:xlink="http://www.w3.org/1999/xlink">
<g id="graph0" class="graph" transform="scale(1 1) rotate(0) translate(18.4 253.55)">
<title>textbook_receiver_chain</title>
<polygon fill="white" stroke="none" points="-4,4 -4,-239.15 1691.28,-239.15 1691.28,4 -4,4"/>
<!-- rx -->
<g id="node1" class="node">
<title>rx</title>
<path fill="none" stroke="#333333" stroke-width="1.2" d="M85.17,-45.45C85.17,-45.45 12,-45.45 12,-45.45 6,-45.45 0,-39.45 0,-33.45 0,-33.45 0,-21.45 0,-21.45 0,-15.45 6,-9.45 12,-9.45 12,-9.45 85.17,-9.45 85.17,-9.45 91.17,-9.45 97.17,-15.45 97.17,-21.45 97.17,-21.45 97.17,-33.45 97.17,-33.45 97.17,-39.45 91.17,-45.45 85.17,-45.45"/>
<text text-anchor="middle" x="48.59" y="-24.28" font-family="PingFang SC" font-size="14.00">接收复信号</text>
</g>
<!-- acq -->
<g id="node2" class="node">
<title>acq</title>
<path fill="none" stroke="#333333" stroke-width="1.2" d="M277.59,-54.9C277.59,-54.9 160.17,-54.9 160.17,-54.9 154.17,-54.9 148.17,-48.9 148.17,-42.9 148.17,-42.9 148.17,-12 148.17,-12 148.17,-6 154.17,0 160.17,0 160.17,0 277.59,0 277.59,0 283.59,0 289.59,-6 289.59,-12 289.59,-12 289.59,-42.9 289.59,-42.9 289.59,-48.9 283.59,-54.9 277.59,-54.9"/>
<text text-anchor="middle" x="218.88" y="-34.4" font-family="PingFang SC" font-size="14.00">捕获</text>
<text text-anchor="middle" x="218.88" y="-14.15" font-family="PingFang SC" font-size="14.00">粗码时延 / 粗频偏</text>
</g>
<!-- rx&#45;&gt;acq -->
<g id="edge1" class="edge">
<title>rx&#45;&gt;acq</title>
<path fill="none" stroke="#444444" stroke-width="1.1" d="M97.36,-27.45C110.07,-27.45 124.16,-27.45 138.08,-27.45"/>
<polygon fill="#444444" stroke="#444444" stroke-width="1.1" points="138.01,-30.25 146.01,-27.45 138.01,-24.65 138.01,-30.25"/>
</g>
<!-- wipeoff -->
<g id="node3" class="node">
<title>wipeoff</title>
<path fill="none" stroke="#333333" stroke-width="1.2" d="M440.01,-45.45C440.01,-45.45 352.59,-45.45 352.59,-45.45 346.59,-45.45 340.59,-39.45 340.59,-33.45 340.59,-33.45 340.59,-21.45 340.59,-21.45 340.59,-15.45 346.59,-9.45 352.59,-9.45 352.59,-9.45 440.01,-9.45 440.01,-9.45 446.01,-9.45 452.01,-15.45 452.01,-21.45 452.01,-21.45 452.01,-33.45 452.01,-33.45 452.01,-39.45 446.01,-45.45 440.01,-45.45"/>
<text text-anchor="middle" x="396.3" y="-24.28" font-family="PingFang SC" font-size="14.00">本地载波去旋</text>
</g>
<!-- acq&#45;&gt;wipeoff -->
<g id="edge2" class="edge">
<title>acq&#45;&gt;wipeoff</title>
<path fill="none" stroke="#444444" stroke-width="1.1" d="M289.97,-27.45C303.41,-27.45 317.42,-27.45 330.68,-27.45"/>
<polygon fill="#444444" stroke="#444444" stroke-width="1.1" points="330.51,-30.25 338.51,-27.45 330.51,-24.65 330.51,-30.25"/>
</g>
<!-- corr -->
<g id="node4" class="node">
<title>corr</title>
<path fill="none" stroke="#333333" stroke-width="1.2" d="M591.18,-115.9C591.18,-115.9 515.01,-115.9 515.01,-115.9 509.01,-115.9 503.01,-109.9 503.01,-103.9 503.01,-103.9 503.01,-73 503.01,-73 503.01,-67 509.01,-61 515.01,-61 515.01,-61 591.18,-61 591.18,-61 597.18,-61 603.18,-67 603.18,-73 603.18,-73 603.18,-103.9 603.18,-103.9 603.18,-109.9 597.18,-115.9 591.18,-115.9"/>
<text text-anchor="middle" x="553.1" y="-95.4" font-family="PingFang SC" font-size="14.00">相关器</text>
<text text-anchor="middle" x="553.1" y="-75.15" font-family="PingFang SC" font-size="14.00">早 / 准 / 晚</text>
</g>
<!-- wipeoff&#45;&gt;corr -->
<g id="edge3" class="edge">
<title>wipeoff&#45;&gt;corr</title>
<path fill="none" stroke="#444444" stroke-width="1.1" d="M444.16,-45.92C459.78,-52.07 477.37,-59 493.75,-65.46"/>
<polygon fill="#444444" stroke="#444444" stroke-width="1.1" points="492.69,-68.05 501.16,-68.38 494.74,-62.84 492.69,-68.05"/>
</g>
<!-- disc -->
<g id="node5" class="node">
<title>disc</title>
<path fill="none" stroke="#333333" stroke-width="1.2" d="M783.6,-189.9C783.6,-189.9 666.18,-189.9 666.18,-189.9 660.18,-189.9 654.18,-183.9 654.18,-177.9 654.18,-177.9 654.18,-147 654.18,-147 654.18,-141 660.18,-135 666.18,-135 666.18,-135 783.6,-135 783.6,-135 789.6,-135 795.6,-141 795.6,-147 795.6,-147 795.6,-177.9 795.6,-177.9 795.6,-183.9 789.6,-189.9 783.6,-189.9"/>
<text text-anchor="middle" x="724.89" y="-169.4" font-family="PingFang SC" font-size="14.00">判别器</text>
<text text-anchor="middle" x="724.89" y="-149.15" font-family="PingFang SC" font-size="14.00">码误差 / 载波误差</text>
</g>
<!-- corr&#45;&gt;disc -->
<g id="edge4" class="edge">
<title>corr&#45;&gt;disc</title>
<path fill="none" stroke="#444444" stroke-width="1.1" d="M603.66,-110.05C618.53,-116.53 635.15,-123.78 651.19,-130.76"/>
<polygon fill="#444444" stroke="#444444" stroke-width="1.1" points="650.04,-133.32 658.49,-133.95 652.28,-128.19 650.04,-133.32"/>
</g>
<!-- lf -->
<g id="node6" class="node">
<title>lf</title>
<path fill="none" stroke="#333333" stroke-width="1.2" d="M966.77,-180.45C966.77,-180.45 893.6,-180.45 893.6,-180.45 887.6,-180.45 881.6,-174.45 881.6,-168.45 881.6,-168.45 881.6,-156.45 881.6,-156.45 881.6,-150.45 887.6,-144.45 893.6,-144.45 893.6,-144.45 966.77,-144.45 966.77,-144.45 972.77,-144.45 978.77,-150.45 978.77,-156.45 978.77,-156.45 978.77,-168.45 978.77,-168.45 978.77,-174.45 972.77,-180.45 966.77,-180.45"/>
<text text-anchor="middle" x="930.19" y="-159.27" font-family="PingFang SC" font-size="14.00">环路滤波器</text>
</g>
<!-- disc&#45;&gt;lf -->
<g id="edge5" class="edge">
<title>disc&#45;&gt;lf</title>
<path fill="none" stroke="#444444" stroke-width="1.1" d="M795.85,-162.45C820.58,-162.45 848.1,-162.45 871.68,-162.45"/>
<polygon fill="#444444" stroke="#444444" stroke-width="1.1" points="871.52,-165.25 879.52,-162.45 871.52,-159.65 871.52,-165.25"/>
</g>
<!-- nco -->
<g id="node7" class="node">
<title>nco</title>
<path fill="none" stroke="#333333" stroke-width="1.2" d="M1159.19,-103.9C1159.19,-103.9 1041.77,-103.9 1041.77,-103.9 1035.77,-103.9 1029.77,-97.9 1029.77,-91.9 1029.77,-91.9 1029.77,-61 1029.77,-61 1029.77,-55 1035.77,-49 1041.77,-49 1041.77,-49 1159.19,-49 1159.19,-49 1165.19,-49 1171.19,-55 1171.19,-61 1171.19,-61 1171.19,-91.9 1171.19,-91.9 1171.19,-97.9 1165.19,-103.9 1159.19,-103.9"/>
<text text-anchor="middle" x="1100.48" y="-83.4" font-family="PingFang SC" font-size="14.00">数控振荡器</text>
<text text-anchor="middle" x="1100.48" y="-63.15" font-family="PingFang SC" font-size="14.00">本地码 / 本地载波</text>
</g>
<!-- lf&#45;&gt;nco -->
<g id="edge6" class="edge">
<title>lf&#45;&gt;nco</title>
<path fill="none" stroke="#444444" stroke-width="1.1" d="M967.29,-144C987.42,-133.72 1013.06,-120.61 1036.4,-108.69"/>
<polygon fill="#444444" stroke="#444444" stroke-width="1.1" points="1037.54,-111.25 1043.39,-105.11 1034.99,-106.26 1037.54,-111.25"/>
</g>
<!-- nat -->
<g id="node8" class="node">
<title>nat</title>
<path fill="none" stroke="#333333" stroke-width="1.2" d="M1151.32,-235.15C1151.32,-235.15 1049.65,-235.15 1049.65,-235.15 1043.65,-235.15 1037.65,-229.15 1037.65,-223.15 1037.65,-223.15 1037.65,-151.75 1037.65,-151.75 1037.65,-145.75 1043.65,-139.75 1049.65,-139.75 1049.65,-139.75 1151.32,-139.75 1151.32,-139.75 1157.32,-139.75 1163.32,-145.75 1163.32,-151.75 1163.32,-151.75 1163.32,-223.15 1163.32,-223.15 1163.32,-229.15 1157.32,-235.15 1151.32,-235.15"/>
<text text-anchor="middle" x="1100.48" y="-214.65" font-family="PingFang SC" font-size="14.00">自然测量量</text>
<text text-anchor="middle" x="1100.48" y="-194.4" font-family="PingFang SC" font-size="14.00">码时延估计</text>
<text text-anchor="middle" x="1100.48" y="-174.15" font-family="PingFang SC" font-size="14.00">载波相位累计量</text>
<text text-anchor="middle" x="1100.48" y="-153.9" font-family="PingFang SC" font-size="14.00">载波频率估计</text>
</g>
<!-- lf&#45;&gt;nat -->
<g id="edge9" class="edge">
<title>lf&#45;&gt;nat</title>
<path fill="none" stroke="#444444" stroke-width="1.1" d="M978.96,-169.55C994.29,-171.82 1011.62,-174.4 1028.26,-176.87"/>
<polygon fill="#444444" stroke="#444444" stroke-width="1.1" points="1027.44,-179.58 1035.77,-177.99 1028.27,-174.04 1027.44,-179.58"/>
</g>
<!-- nco&#45;&gt;wipeoff -->
<g id="edge7" class="edge">
<title>nco&#45;&gt;wipeoff</title>
<path fill="none" stroke="#444444" stroke-width="1.1" d="M1032.48,-48.58C985.55,-29.06 931.19,-6.45 931.19,-6.45 552.1,-6.45 552.1,-6.45 552.1,-6.45 552.1,-6.45 504.31,-12.93 461.83,-18.7"/>
<polygon fill="#444444" stroke="#444444" stroke-width="1.1" points="461.51,-15.91 453.96,-19.76 462.26,-21.46 461.51,-15.91"/>
<text text-anchor="middle" x="724.89" y="-12.3" font-family="PingFang SC" font-size="12.00">本地载波</text>
</g>
<!-- nco&#45;&gt;corr -->
<g id="edge8" class="edge">
<title>nco&#45;&gt;corr</title>
<path fill="none" stroke="#444444" stroke-width="1.1" d="M1029.48,-77.99C920.98,-80.38 714.18,-84.93 612.92,-87.16"/>
<polygon fill="#444444" stroke="#444444" stroke-width="1.1" points="613.06,-84.35 605.12,-87.33 613.18,-89.95 613.06,-84.35"/>
<text text-anchor="middle" x="838.6" y="-88.4" font-family="PingFang SC" font-size="12.00">本地码</text>
</g>
<!-- obs -->
<g id="node9" class="node">
<title>obs</title>
<path fill="none" stroke="#333333" stroke-width="1.2" d="M1438.61,-214.9C1438.61,-214.9 1234.19,-214.9 1234.19,-214.9 1228.19,-214.9 1222.19,-208.9 1222.19,-202.9 1222.19,-202.9 1222.19,-172 1222.19,-172 1222.19,-166 1228.19,-160 1234.19,-160 1234.19,-160 1438.61,-160 1438.61,-160 1444.61,-160 1450.61,-166 1450.61,-172 1450.61,-172 1450.61,-202.9 1450.61,-202.9 1450.61,-208.9 1444.61,-214.9 1438.61,-214.9"/>
<text text-anchor="middle" x="1336.4" y="-194.4" font-family="PingFang SC" font-size="14.00">观测形成</text>
<text text-anchor="middle" x="1336.4" y="-174.15" font-family="PingFang SC" font-size="14.00">时标解释 / 波长换算 / 符号约定</text>
</g>
<!-- nat&#45;&gt;obs -->
<g id="edge10" class="edge">
<title>nat&#45;&gt;obs</title>
<path fill="none" stroke="#444444" stroke-width="1.1" d="M1163.55,-187.45C1178.74,-187.45 1195.53,-187.45 1212.48,-187.45"/>
<polygon fill="#444444" stroke="#444444" stroke-width="1.1" points="1212.24,-190.25 1220.24,-187.45 1212.24,-184.65 1212.24,-190.25"/>
</g>
<!-- std -->
<g id="node10" class="node">
<title>std</title>
<path fill="none" stroke="#333333" stroke-width="1.2" d="M1675.28,-214.9C1675.28,-214.9 1513.61,-214.9 1513.61,-214.9 1507.61,-214.9 1501.61,-208.9 1501.61,-202.9 1501.61,-202.9 1501.61,-172 1501.61,-172 1501.61,-166 1507.61,-160 1513.61,-160 1513.61,-160 1675.28,-160 1675.28,-160 1681.28,-160 1687.28,-166 1687.28,-172 1687.28,-172 1687.28,-202.9 1687.28,-202.9 1687.28,-208.9 1681.28,-214.9 1675.28,-214.9"/>
<text text-anchor="middle" x="1594.45" y="-194.4" font-family="PingFang SC" font-size="14.00">标准观测量</text>
<text text-anchor="middle" x="1594.45" y="-174.15" font-family="PingFang SC" font-size="14.00">伪距 / 载波相位 / 距离率</text>
</g>
<!-- obs&#45;&gt;std -->
<g id="edge11" class="edge">
<title>obs&#45;&gt;std</title>
<path fill="none" stroke="#444444" stroke-width="1.1" d="M1450.82,-187.45C1464.52,-187.45 1478.44,-187.45 1491.95,-187.45"/>
<polygon fill="#444444" stroke="#444444" stroke-width="1.1" points="1491.56,-190.25 1499.56,-187.45 1491.56,-184.65 1491.56,-190.25"/>
</g>
</g>
</svg>
