<?xml version="1.0" encoding="UTF-8" standalone="no"?>
<!DOCTYPE svg PUBLIC "-//W3C//DTD SVG 1.1//EN"
 "http://www.w3.org/Graphics/SVG/1.1/DTD/svg11.dtd">
<!-- Generated by graphviz version 12.2.1 (20241206.2353)
 -->
<!-- Title: textbook_carrier_loop Pages: 1 -->
<svg width="817pt" height="245pt"
 viewBox="14.40 14.40 802.25 230.40" xmlns="http://www.w3.org/2000/svg" xmlns:xlink="http://www.w3.org/1999/xlink">
<g id="graph0" class="graph" transform="scale(1 1) rotate(0) translate(18.4 226.4)">
<title>textbook_carrier_loop</title>
<polygon fill="white" stroke="none" points="-4,4 -4,-212 783.85,-212 783.85,4 -4,4"/>
<!-- rx -->
<g id="node1" class="node">
<title>rx</title>
<path fill="none" stroke="#333333" stroke-width="1.2" d="M99.42,-65C99.42,-65 12,-65 12,-65 6,-65 0,-59 0,-53 0,-53 0,-41 0,-41 0,-35 6,-29 12,-29 12,-29 99.42,-29 99.42,-29 105.42,-29 111.42,-35 111.42,-41 111.42,-41 111.42,-53 111.42,-53 111.42,-59 105.42,-65 99.42,-65"/>
<text text-anchor="middle" x="55.71" y="-43.83" font-family="PingFang SC" font-size="14.00">准时相关输出</text>
</g>
<!-- costas -->
<g id="node2" class="node">
<title>costas</title>
<path fill="none" stroke="#333333" stroke-width="1.2" d="M271.59,-169.45C271.59,-169.45 177.42,-169.45 177.42,-169.45 171.42,-169.45 165.42,-163.45 165.42,-157.45 165.42,-157.45 165.42,-126.55 165.42,-126.55 165.42,-120.55 171.42,-114.55 177.42,-114.55 177.42,-114.55 271.59,-114.55 271.59,-114.55 277.59,-114.55 283.59,-120.55 283.59,-126.55 283.59,-126.55 283.59,-157.45 283.59,-157.45 283.59,-163.45 277.59,-169.45 271.59,-169.45"/>
<text text-anchor="middle" x="224.51" y="-148.95" font-family="PingFang SC" font-size="14.00">Costas 判别器</text>
<text text-anchor="middle" x="224.51" y="-128.7" font-family="PingFang SC" font-size="14.00">相位误差</text>
</g>
<!-- rx&#45;&gt;costas -->
<g id="edge1" class="edge">
<title>rx&#45;&gt;costas</title>
<path fill="none" stroke="#444444" stroke-width="1.1" d="M88.87,-65.32C110.82,-77.82 140.51,-94.73 166.42,-109.49"/>
<polygon fill="#444444" stroke="#444444" stroke-width="1.1" points="164.9,-111.84 173.24,-113.37 167.67,-106.98 164.9,-111.84"/>
</g>
<!-- fll -->
<g id="node3" class="node">
<title>fll</title>
<path fill="none" stroke="#333333" stroke-width="1.2" d="M254.34,-74.45C254.34,-74.45 194.67,-74.45 194.67,-74.45 188.67,-74.45 182.67,-68.45 182.67,-62.45 182.67,-62.45 182.67,-31.55 182.67,-31.55 182.67,-25.55 188.67,-19.55 194.67,-19.55 194.67,-19.55 254.34,-19.55 254.34,-19.55 260.34,-19.55 266.34,-25.55 266.34,-31.55 266.34,-31.55 266.34,-62.45 266.34,-62.45 266.34,-68.45 260.34,-74.45 254.34,-74.45"/>
<text text-anchor="middle" x="224.51" y="-53.95" font-family="PingFang SC" font-size="14.00">FLL 辅助</text>
<text text-anchor="middle" x="224.51" y="-33.7" font-family="PingFang SC" font-size="14.00">频率误差</text>
</g>
<!-- rx&#45;&gt;fll -->
<g id="edge6" class="edge">
<title>rx&#45;&gt;fll</title>
<path fill="none" stroke="#444444" stroke-width="1.1" d="M111.79,-47C131.43,-47 153.45,-47 172.72,-47"/>
<polygon fill="#444444" stroke="#444444" stroke-width="1.1" points="172.56,-49.8 180.56,-47 172.56,-44.2 172.56,-49.8"/>
</g>
<!-- sum -->
<g id="node4" class="node">
<title>sum</title>
<path fill="none" stroke="#333333" stroke-width="1.2" d="M451.26,-132C451.26,-132 349.59,-132 349.59,-132 343.59,-132 337.59,-126 337.59,-120 337.59,-120 337.59,-108 337.59,-108 337.59,-102 343.59,-96 349.59,-96 349.59,-96 451.26,-96 451.26,-96 457.26,-96 463.26,-102 463.26,-108 463.26,-108 463.26,-120 463.26,-120 463.26,-126 457.26,-132 451.26,-132"/>
<text text-anchor="middle" x="400.43" y="-110.83" font-family="PingFang SC" font-size="14.00">环路组合与滤波</text>
</g>
<!-- costas&#45;&gt;sum -->
<g id="edge2" class="edge">
<title>costas&#45;&gt;sum</title>
<path fill="none" stroke="#444444" stroke-width="1.1" d="M283.9,-132.6C297.99,-130.33 313.2,-127.88 327.81,-125.53"/>
<polygon fill="#444444" stroke="#444444" stroke-width="1.1" points="328.21,-128.3 335.67,-124.26 327.32,-122.77 328.21,-128.3"/>
</g>
<!-- fll&#45;&gt;sum -->
<g id="edge7" class="edge">
<title>fll&#45;&gt;sum</title>
<path fill="none" stroke="#444444" stroke-width="1.1" d="M266.72,-62.88C289.36,-71.6 317.77,-82.54 342.49,-92.07"/>
<polygon fill="#444444" stroke="#444444" stroke-width="1.1" points="341.39,-94.64 349.86,-94.91 343.4,-89.42 341.39,-94.64"/>
</g>
<!-- nco -->
<g id="node5" class="node">
<title>nco</title>
<path fill="none" stroke="#333333" stroke-width="1.2" d="M612.93,-208C612.93,-208 547.26,-208 547.26,-208 541.26,-208 535.26,-202 535.26,-196 535.26,-196 535.26,-184 535.26,-184 535.26,-178 541.26,-172 547.26,-172 547.26,-172 612.93,-172 612.93,-172 618.93,-172 624.93,-178 624.93,-184 624.93,-184 624.93,-196 624.93,-196 624.93,-202 618.93,-208 612.93,-208"/>
<text text-anchor="middle" x="580.1" y="-186.82" font-family="PingFang SC" font-size="14.00">载波 NCO</text>
</g>
<!-- sum&#45;&gt;nco -->
<g id="edge3" class="edge">
<title>sum&#45;&gt;nco</title>
<path fill="none" stroke="#444444" stroke-width="1.1" d="M444.43,-132.4C469.35,-143.05 500.88,-156.54 527.17,-167.79"/>
<polygon fill="#444444" stroke="#444444" stroke-width="1.1" points="525.88,-170.28 534.34,-170.85 528.08,-165.13 525.88,-170.28"/>
</g>
<!-- phase -->
<g id="node7" class="node">
<title>phase</title>
<path fill="none" stroke="#333333" stroke-width="1.2" d="M630.93,-132C630.93,-132 529.26,-132 529.26,-132 523.26,-132 517.26,-126 517.26,-120 517.26,-120 517.26,-108 517.26,-108 517.26,-102 523.26,-96 529.26,-96 529.26,-96 630.93,-96 630.93,-96 636.93,-96 642.93,-102 642.93,-108 642.93,-108 642.93,-120 642.93,-120 642.93,-126 636.93,-132 630.93,-132"/>
<text text-anchor="middle" x="580.1" y="-110.83" font-family="PingFang SC" font-size="14.00">载波相位累计量</text>
</g>
<!-- sum&#45;&gt;phase -->
<g id="edge8" class="edge">
<title>sum&#45;&gt;phase</title>
<path fill="none" stroke="#444444" stroke-width="1.1" d="M463.57,-114C477.77,-114 492.97,-114 507.53,-114"/>
<polygon fill="#444444" stroke="#444444" stroke-width="1.1" points="507.32,-116.8 515.32,-114 507.32,-111.2 507.32,-116.8"/>
</g>
<!-- freq -->
<g id="node8" class="node">
<title>freq</title>
<path fill="none" stroke="#333333" stroke-width="1.2" d="M623.81,-56C623.81,-56 536.39,-56 536.39,-56 530.39,-56 524.39,-50 524.39,-44 524.39,-44 524.39,-32 524.39,-32 524.39,-26 530.39,-20 536.39,-20 536.39,-20 623.81,-20 623.81,-20 629.81,-20 635.81,-26 635.81,-32 635.81,-32 635.81,-44 635.81,-44 635.81,-50 629.81,-56 623.81,-56"/>
<text text-anchor="middle" x="580.1" y="-34.83" font-family="PingFang SC" font-size="14.00">载波频率估计</text>
</g>
<!-- sum&#45;&gt;freq -->
<g id="edge9" class="edge">
<title>sum&#45;&gt;freq</title>
<path fill="none" stroke="#444444" stroke-width="1.1" d="M444.43,-95.6C469.35,-84.95 500.88,-71.46 527.17,-60.21"/>
<polygon fill="#444444" stroke="#444444" stroke-width="1.1" points="528.08,-62.87 534.34,-57.15 525.88,-57.72 528.08,-62.87"/>
</g>
<!-- carr -->
<g id="node6" class="node">
<title>carr</title>
<path fill="none" stroke="#333333" stroke-width="1.2" d="M767.85,-92C767.85,-92 708.93,-92 708.93,-92 702.93,-92 696.93,-86 696.93,-80 696.93,-80 696.93,-68 696.93,-68 696.93,-62 702.93,-56 708.93,-56 708.93,-56 767.85,-56 767.85,-56 773.85,-56 779.85,-62 779.85,-68 779.85,-68 779.85,-80 779.85,-80 779.85,-86 773.85,-92 767.85,-92"/>
<text text-anchor="middle" x="738.39" y="-70.83" font-family="PingFang SC" font-size="14.00">本地载波</text>
</g>
<!-- nco&#45;&gt;carr -->
<g id="edge4" class="edge">
<title>nco&#45;&gt;carr</title>
<path fill="none" stroke="#444444" stroke-width="1.1" d="M610.93,-171.67C626.74,-161.95 642.93,-152 642.93,-152 642.93,-152 680.13,-121.29 707.84,-98.4"/>
<polygon fill="#444444" stroke="#444444" stroke-width="1.1" points="709.33,-100.8 713.72,-93.54 705.77,-96.48 709.33,-100.8"/>
</g>
<!-- carr&#45;&gt;rx -->
<g id="edge5" class="edge">
<title>carr&#45;&gt;rx</title>
<path fill="none" stroke="#444444" stroke-width="1.1" d="M714.04,-55.71C686.07,-33.79 642.93,0 642.93,0 642.93,0 165.42,0 165.42,0 165.42,0 136.18,-12.64 108.03,-24.81"/>
<polygon fill="#444444" stroke="#444444" stroke-width="1.1" points="107.12,-22.15 100.89,-27.9 109.35,-27.29 107.12,-22.15"/>
</g>
</g>
</svg>
